# xmcd
#
# Track frame offsets:
#	150
#	11142
#	21740
#	34670
#	45542
#	59727
#	70022
#	79615
#	89800
#	99435
#	108830
#	120855
#	132762
#	141075
#	151680
#	161112
#	170410
#	181777
#	194757
#	207547
#	218347
#	229830
#	240280
#	249362
#	262442
#	274765
#	287305
#
# Disc length: 3994 seconds
#
# Revision: 1
# Processed by: cddbd v1.5.2PL0 Copyright (c) Steve Scherf et al.
# Submitted via: EZCDAudioConverter 3.1.7.1
#
DISCID=7b0f981b
DTITLE=Darrell McCall - The Real McCall [CD2]
DYEAR=196
DGENRE=Country
TTITLE0=The Marionette
TTITLE1=I Love You Baby 
TTITLE2=I'd Love To Live With You Again 
TTITLE3=I'd Die To See You Smile 
TTITLE4=Wrong Kind Of Man 
TTITLE5=Blame Me 
TTITLE6=Hurry Up 
TTITLE7=Wall Of Pictures 
TTITLE8=Tiny Ribbons 
TTITLE9=Big Oak Tree 
TTITLE10=Bury The Bottle With Me 
TTITLE11=A Stranger Was Here 
TTITLE12=Wedding Band 
TTITLE13=Hide And Go Cheat 
TTITLE14=New Rich Friend 
TTITLE15=The First Year 
TTITLE16=Likes Of Polly 
TTITLE17=Yours And His 
TTITLE18=Don't Tell My Wife 
TTITLE19=The Right To Do Wrong 
TTITLE20=Sally Bryson 
TTITLE21=The Arms Of My Weakness 
TTITLE22=Heart Of Dixie 
TTITLE23=The Loser 
TTITLE24=The Fiddlin' Of Jacque Pierre Bordeaux 
TTITLE25=I'll Break Out Again Tonight 
TTITLE26=Mixing Memories 
EXTD=
EXTT0=
EXTT1=
EXTT2=
EXTT3=
EXTT4=
EXTT5=
EXTT6=
EXTT7=
EXTT8=
EXTT9=
EXTT10=
EXTT11=
EXTT12=
EXTT13=
EXTT14=
EXTT15=
EXTT16=
EXTT17=
EXTT18=
EXTT19=
EXTT20=
EXTT21=
EXTT22=
EXTT23=
EXTT24=
EXTT25=
EXTT26=
PLAYORDER=
